<svg version="1.1" xmlns="http://www.w3.org/2000/svg" xmlns:xlink="http://www.w3.org/1999/xlink" viewBox="0 0 209.7 217.9" fill="#362ef9" style="enable-background:new 0 0 209.7 217.9;" xml:space="preserve"><path d="M143.5,106.6h45.1l0.1-0.2c4-9.2,6.1-19.2,6-29.2c0.2-13.8-3.6-27.4-10.9-39.1c-7.2-11.6-18.2-20.9-32.6-27.8 S118.9,0,98.2,0H0l26.1,40.5l0.1,0.1h70.1c14.8,0,26,3.3,33.4,9.9s11.1,15.9,11.1,27.8c0,11.4-3.3,20.6-9.9,27.4H83.3l0.3,0.6 l-28.5,38V144H0.2v73.9h54.9v-73.4h49.5v-1l41.8,74.3l0.1,0.1h63.2L143.5,106.6z"/></svg>